<svg width="60" height="12" viewBox="0 0 60 12" fill="none" xmlns="http://www.w3.org/2000/svg">
<path d="M8.95925 7.1601C8.82975 7.2856 8.77025 7.4671 8.79975 7.6451L9.24426 10.1051C9.28176 10.3136 9.19376 10.5246 9.01925 10.6451C8.84825 10.7701 8.62075 10.7851 8.43425 10.6851L6.21975 9.5301C6.14275 9.4891 6.05725 9.4671 5.96975 9.4646H5.83425C5.78725 9.4716 5.74125 9.4866 5.69925 9.5096L3.48425 10.6701C3.37475 10.7251 3.25075 10.7446 3.12925 10.7251C2.83325 10.6691 2.63575 10.3871 2.68425 10.0896L3.12925 7.6296C3.15875 7.4501 3.09925 7.2676 2.96975 7.1401L1.16425 5.3901C1.01325 5.2436 0.960755 5.0236 1.02975 4.8251C1.09675 4.6271 1.26775 4.4826 1.47425 4.4501L3.95925 4.0896C4.14825 4.0701 4.31425 3.9551 4.39925 3.7851L5.49425 1.5401C5.52025 1.4901 5.55375 1.4441 5.59425 1.4051L5.63925 1.3701C5.66275 1.3441 5.68975 1.3226 5.71975 1.3051L5.77425 1.2851L5.85925 1.2501H6.06975C6.25775 1.2696 6.42325 1.3821 6.50975 1.5501L7.61925 3.7851C7.69925 3.9486 7.85475 4.0621 8.03426 4.0896L10.5193 4.4501C10.7293 4.4801 10.9048 4.6251 10.9743 4.8251C11.0398 5.0256 10.9833 5.2456 10.8293 5.3901L8.95925 7.1601Z" fill="#EBA53B"/>
<path d="M20.9593 7.1601C20.8298 7.2856 20.7703 7.4671 20.7998 7.6451L21.2443 10.1051C21.2818 10.3136 21.1938 10.5246 21.0193 10.6451C20.8483 10.7701 20.6208 10.7851 20.4343 10.6851L18.2198 9.5301C18.1428 9.4891 18.0573 9.4671 17.9698 9.4646H17.8343C17.7873 9.4716 17.7413 9.4866 17.6993 9.5096L15.4843 10.6701C15.3748 10.7251 15.2508 10.7446 15.1293 10.7251C14.8333 10.6691 14.6358 10.3871 14.6843 10.0896L15.1293 7.6296C15.1588 7.4501 15.0993 7.2676 14.9698 7.1401L13.1643 5.3901C13.0133 5.2436 12.9608 5.0236 13.0298 4.8251C13.0968 4.6271 13.2678 4.4826 13.4743 4.4501L15.9593 4.0896C16.1483 4.0701 16.3143 3.9551 16.3993 3.7851L17.4943 1.5401C17.5203 1.4901 17.5538 1.4441 17.5943 1.4051L17.6393 1.3701C17.6628 1.3441 17.6898 1.3226 17.7198 1.3051L17.7743 1.2851L17.8593 1.2501H18.0698C18.2578 1.2696 18.4233 1.3821 18.5098 1.5501L19.6193 3.7851C19.6993 3.9486 19.8548 4.0621 20.0343 4.0896L22.5193 4.4501C22.7293 4.4801 22.9048 4.6251 22.9743 4.8251C23.0398 5.0256 22.9833 5.2456 22.8293 5.3901L20.9593 7.1601Z" fill="#EBA53B"/>
<path d="M32.9593 7.1601C32.8298 7.2856 32.7703 7.4671 32.7998 7.6451L33.2443 10.1051C33.2818 10.3136 33.1938 10.5246 33.0193 10.6451C32.8483 10.7701 32.6208 10.7851 32.4343 10.6851L30.2198 9.5301C30.1428 9.4891 30.0573 9.4671 29.9698 9.4646H29.8343C29.7873 9.4716 29.7413 9.4866 29.6993 9.5096L27.4843 10.6701C27.3748 10.7251 27.2508 10.7446 27.1293 10.7251C26.8333 10.6691 26.6358 10.3871 26.6843 10.0896L27.1293 7.6296C27.1588 7.4501 27.0993 7.2676 26.9698 7.1401L25.1643 5.3901C25.0133 5.2436 24.9608 5.0236 25.0298 4.8251C25.0968 4.6271 25.2678 4.4826 25.4743 4.4501L27.9593 4.0896C28.1483 4.0701 28.3143 3.9551 28.3993 3.7851L29.4943 1.5401C29.5203 1.4901 29.5538 1.4441 29.5943 1.4051L29.6393 1.3701C29.6628 1.3441 29.6898 1.3226 29.7198 1.3051L29.7743 1.2851L29.8593 1.2501H30.0698C30.2578 1.2696 30.4233 1.3821 30.5098 1.5501L31.6193 3.7851C31.6993 3.9486 31.8548 4.0621 32.0343 4.0896L34.5193 4.4501C34.7293 4.4801 34.9048 4.6251 34.9743 4.8251C35.0398 5.0256 34.9833 5.2456 34.8293 5.3901L32.9593 7.1601Z" fill="#EBA53B"/>
<path d="M44.9593 7.1601C44.8298 7.2856 44.7703 7.4671 44.7998 7.6451L45.2443 10.1051C45.2818 10.3136 45.1938 10.5246 45.0193 10.6451C44.8483 10.7701 44.6208 10.7851 44.4343 10.6851L42.2198 9.5301C42.1428 9.4891 42.0573 9.4671 41.9698 9.4646H41.8343C41.7873 9.4716 41.7413 9.4866 41.6993 9.5096L39.4843 10.6701C39.3748 10.7251 39.2508 10.7446 39.1293 10.7251C38.8333 10.6691 38.6358 10.3871 38.6843 10.0896L39.1293 7.6296C39.1588 7.4501 39.0993 7.2676 38.9698 7.1401L37.1643 5.3901C37.0133 5.2436 36.9608 5.0236 37.0298 4.8251C37.0968 4.6271 37.2678 4.4826 37.4743 4.4501L39.9593 4.0896C40.1483 4.0701 40.3143 3.9551 40.3993 3.7851L41.4943 1.5401C41.5203 1.4901 41.5538 1.4441 41.5943 1.4051L41.6393 1.3701C41.6628 1.3441 41.6898 1.3226 41.7198 1.3051L41.7743 1.2851L41.8593 1.2501H42.0698C42.2578 1.2696 42.4233 1.3821 42.5098 1.5501L43.6193 3.7851C43.6993 3.9486 43.8548 4.0621 44.0343 4.0896L46.5193 4.4501C46.7293 4.4801 46.9048 4.6251 46.9743 4.8251C47.0398 5.0256 46.9833 5.2456 46.8293 5.3901L44.9593 7.1601Z" fill="#EBA53B"/>
<path d="M56.9593 7.1601C56.8298 7.2856 56.7703 7.4671 56.7998 7.6451L57.2443 10.1051C57.2818 10.3136 57.1938 10.5246 57.0193 10.6451C56.8483 10.7701 56.6208 10.7851 56.4343 10.6851L54.2198 9.5301C54.1428 9.4891 54.0573 9.4671 53.9698 9.4646H53.8343C53.7873 9.4716 53.7413 9.4866 53.6993 9.5096L51.4843 10.6701C51.3748 10.7251 51.2508 10.7446 51.1293 10.7251C50.8333 10.6691 50.6358 10.3871 50.6843 10.0896L51.1293 7.6296C51.1588 7.4501 51.0993 7.2676 50.9698 7.1401L49.1643 5.3901C49.0133 5.2436 48.9608 5.0236 49.0298 4.8251C49.0968 4.6271 49.2678 4.4826 49.4743 4.4501L51.9593 4.0896C52.1483 4.0701 52.3143 3.9551 52.3993 3.7851L53.4943 1.5401C53.5203 1.4901 53.5538 1.4441 53.5943 1.4051L53.6393 1.3701C53.6628 1.3441 53.6898 1.3226 53.7198 1.3051L53.7743 1.2851L53.8593 1.2501H54.0698C54.2578 1.2696 54.4233 1.3821 54.5098 1.5501L55.6193 3.7851C55.6993 3.9486 55.8548 4.0621 56.0343 4.0896L58.5193 4.4501C58.7293 4.4801 58.9048 4.6251 58.9743 4.8251C59.0398 5.0256 58.9833 5.2456 58.8293 5.3901L56.9593 7.1601Z" fill="#E6E6E6"/>
</svg>
